<svg width="131" height="48" viewBox="0 0 131 48" fill="none" xmlns="http://www.w3.org/2000/svg">
<path d="M13.5858 38.2426L0.585762 25.2426C-0.195254 24.4616 -0.195254 23.1953 0.585762 22.4142L3.41412 19.5858C4.19514 18.8047 5.46154 18.8047 6.24256 19.5858L15 28.3431L33.7574 9.58576C34.5384 8.80475 35.8048 8.80475 36.5858 9.58576L39.4142 12.4142C40.1952 13.1952 40.1952 14.4615 39.4142 15.2426L16.4142 38.2427C15.6331 39.0237 14.3668 39.0237 13.5858 38.2426V38.2426Z" fill="#6457A6"/>
<path d="M66.144 12.536V16.92H60.192V35H54.72V16.92H48.768V12.536H66.144ZM77.0183 35.256C75.2689 35.256 73.6903 34.8827 72.2823 34.136C70.8956 33.3893 69.7969 32.3227 68.9863 30.936C68.1969 29.5493 67.8023 27.928 67.8023 26.072C67.8023 24.2373 68.2076 22.6267 69.0182 21.24C69.8289 19.832 70.9383 18.7547 72.3463 18.008C73.7543 17.2613 75.3329 16.888 77.0823 16.888C78.8316 16.888 80.4103 17.2613 81.8183 18.008C83.2263 18.7547 84.3356 19.832 85.1463 21.24C85.9569 22.6267 86.3623 24.2373 86.3623 26.072C86.3623 27.9067 85.9463 29.528 85.1143 30.936C84.3036 32.3227 83.1836 33.3893 81.7543 34.136C80.3463 34.8827 78.7676 35.256 77.0183 35.256ZM77.0183 30.52C78.0636 30.52 78.9489 30.136 79.6743 29.368C80.4209 28.6 80.7943 27.5013 80.7943 26.072C80.7943 24.6427 80.4316 23.544 79.7063 22.776C79.0023 22.008 78.1276 21.624 77.0823 21.624C76.0156 21.624 75.1303 22.008 74.4263 22.776C73.7223 23.5227 73.3703 24.6213 73.3703 26.072C73.3703 27.5013 73.7116 28.6 74.3943 29.368C75.0983 30.136 75.9729 30.52 77.0183 30.52ZM97.6813 12.536C100.049 12.536 102.119 13.0053 103.889 13.944C105.66 14.8827 107.025 16.2053 107.985 17.912C108.967 19.5973 109.457 21.5493 109.457 23.768C109.457 25.9653 108.967 27.9173 107.985 29.624C107.025 31.3307 105.649 32.6533 103.857 33.592C102.087 34.5307 100.028 35 97.6813 35H89.2653V12.536H97.6813ZM97.3293 30.264C99.3986 30.264 101.009 29.6987 102.161 28.568C103.313 27.4373 103.889 25.8373 103.889 23.768C103.889 21.6987 103.313 20.088 102.161 18.936C101.009 17.784 99.3986 17.208 97.3293 17.208H94.7373V30.264H97.3293ZM120.643 35.256C118.894 35.256 117.315 34.8827 115.907 34.136C114.521 33.3893 113.422 32.3227 112.611 30.936C111.822 29.5493 111.427 27.928 111.427 26.072C111.427 24.2373 111.833 22.6267 112.643 21.24C113.454 19.832 114.563 18.7547 115.971 18.008C117.379 17.2613 118.958 16.888 120.707 16.888C122.457 16.888 124.035 17.2613 125.443 18.008C126.851 18.7547 127.961 19.832 128.771 21.24C129.582 22.6267 129.987 24.2373 129.987 26.072C129.987 27.9067 129.571 29.528 128.739 30.936C127.929 32.3227 126.809 33.3893 125.379 34.136C123.971 34.8827 122.393 35.256 120.643 35.256ZM120.643 30.52C121.689 30.52 122.574 30.136 123.299 29.368C124.046 28.6 124.419 27.5013 124.419 26.072C124.419 24.6427 124.057 23.544 123.331 22.776C122.627 22.008 121.753 21.624 120.707 21.624C119.641 21.624 118.755 22.008 118.051 22.776C117.347 23.5227 116.995 24.6213 116.995 26.072C116.995 27.5013 117.337 28.6 118.019 29.368C118.723 30.136 119.598 30.52 120.643 30.52Z" fill="black"/>
</svg>
