<svg width="131" height="48" viewBox="0 0 131 48" fill="none" xmlns="http://www.w3.org/2000/svg">
<path d="M13.5858 38.2426L0.585762 25.2426C-0.195254 24.4616 -0.195254 23.1953 0.585762 22.4142L3.41412 19.5858C4.19514 18.8047 5.46154 18.8047 6.24256 19.5858L15 28.3431L33.7574 9.58576C34.5384 8.80475 35.8048 8.80475 36.5858 9.58576L39.4142 12.4142C40.1952 13.1952 40.1952 14.4615 39.4142 15.2426L16.4142 38.2427C15.6331 39.0237 14.3668 39.0237 13.5858 38.2426Z" fill="#6457A6"/>
<path d="M66.1441 12.5359V16.9199H60.1921V34.9999H54.7201V16.9199H48.7681V12.5359H66.1441ZM77.0184 35.2559C75.269 35.2559 73.6904 34.8826 72.2824 34.1359C70.8957 33.3892 69.797 32.3226 68.9864 30.9359C68.197 29.5492 67.8024 27.9279 67.8024 26.0719C67.8024 24.2372 68.2077 22.6266 69.0183 21.2399C69.829 19.8319 70.9384 18.7546 72.3464 18.0079C73.7544 17.2612 75.333 16.8879 77.0824 16.8879C78.8317 16.8879 80.4104 17.2612 81.8184 18.0079C83.2264 18.7546 84.3357 19.8319 85.1464 21.2399C85.957 22.6266 86.3624 24.2372 86.3624 26.0719C86.3624 27.9066 85.9464 29.5279 85.1144 30.9359C84.3037 32.3226 83.1837 33.3892 81.7544 34.1359C80.3464 34.8826 78.7677 35.2559 77.0184 35.2559ZM77.0184 30.5199C78.0637 30.5199 78.949 30.1359 79.6744 29.3679C80.421 28.5999 80.7944 27.5012 80.7944 26.0719C80.7944 24.6426 80.4317 23.5439 79.7064 22.7759C79.0024 22.0079 78.1277 21.6239 77.0824 21.6239C76.0157 21.6239 75.1304 22.0079 74.4264 22.7759C73.7224 23.5226 73.3704 24.6212 73.3704 26.0719C73.3704 27.5012 73.7117 28.5999 74.3944 29.3679C75.0984 30.1359 75.973 30.5199 77.0184 30.5199ZM97.6814 12.5359C100.049 12.5359 102.119 13.0052 103.889 13.9439C105.66 14.8826 107.025 16.2052 107.985 17.9119C108.967 19.5972 109.457 21.5492 109.457 23.7679C109.457 25.9652 108.967 27.9172 107.985 29.6239C107.025 31.3306 105.649 32.6532 103.857 33.5919C102.087 34.5306 100.028 34.9999 97.6814 34.9999H89.2654V12.5359H97.6814ZM97.3294 30.2639C99.3987 30.2639 101.009 29.6986 102.161 28.5679C103.313 27.4372 103.889 25.8372 103.889 23.7679C103.889 21.6986 103.313 20.0879 102.161 18.9359C101.009 17.7839 99.3987 17.2079 97.3294 17.2079H94.7374V30.2639H97.3294ZM120.643 35.2559C118.894 35.2559 117.315 34.8826 115.907 34.1359C114.521 33.3892 113.422 32.3226 112.611 30.9359C111.822 29.5492 111.427 27.9279 111.427 26.0719C111.427 24.2372 111.833 22.6266 112.643 21.2399C113.454 19.8319 114.563 18.7546 115.971 18.0079C117.379 17.2612 118.958 16.8879 120.707 16.8879C122.457 16.8879 124.035 17.2612 125.443 18.0079C126.851 18.7546 127.961 19.8319 128.771 21.2399C129.582 22.6266 129.987 24.2372 129.987 26.0719C129.987 27.9066 129.571 29.5279 128.739 30.9359C127.929 32.3226 126.809 33.3892 125.379 34.1359C123.971 34.8826 122.393 35.2559 120.643 35.2559ZM120.643 30.5199C121.689 30.5199 122.574 30.1359 123.299 29.3679C124.046 28.5999 124.419 27.5012 124.419 26.0719C124.419 24.6426 124.057 23.5439 123.331 22.7759C122.627 22.0079 121.753 21.6239 120.707 21.6239C119.641 21.6239 118.755 22.0079 118.051 22.7759C117.347 23.5226 116.995 24.6212 116.995 26.0719C116.995 27.5012 117.337 28.5999 118.019 29.3679C118.723 30.1359 119.598 30.5199 120.643 30.5199Z" fill="#6457A6"/>
</svg>
